<svg width="87" height="19" viewBox="0 0 87 19" fill="none" xmlns="http://www.w3.org/2000/svg">
<path d="M16.2646 18.012H5.27498C2.36165 18.012 0 15.6504 0 12.737C0 9.43174 2.83641 7.30533 6.00297 7.65188C7.64777 7.83196 9.1901 8.61481 10.4491 9.68865C12.2209 11.1998 13.4876 13.2961 14.6805 15.2662C14.8759 15.5891 16.0248 18.012 16.2646 18.012Z" fill="#FF2DF7"/>
<path d="M18.5724 18.012H29.5621C32.4753 18.012 34.8371 15.6504 34.8371 12.737C34.8371 9.43174 32.0007 7.30533 28.8341 7.65188C27.1893 7.83196 25.647 8.61481 24.388 9.68865C22.6162 11.1998 21.3494 13.2961 20.1566 15.2662C19.9611 15.5891 18.8123 18.012 18.5724 18.012Z" fill="#FF2DF7"/>
<path d="M42.8912 13.8096H44.8718L43.8974 10.7381L42.8912 13.8096ZM42.9918 8.95337H44.8347L47.5991 16.7594H45.8303L45.3272 15.1548H42.4516L41.9114 16.7594H40.2062L42.9918 8.95337Z" fill="#97318D"/>
<path d="M50.729 13.8096H52.7096L51.7352 10.7381L50.729 13.8096ZM50.8296 8.95337H52.6725L55.4369 16.7594H53.6681L53.165 15.1548H50.2894L49.7492 16.7594H48.044L50.8296 8.95337Z" fill="#97318D"/>
<path d="M56.4326 8.95337H58.0637V15.356H61.9296V16.7594H56.4326V8.95337Z" fill="#97318D"/>
<path d="M64.5563 16.7594H62.9358V8.95337H64.5563V16.7594Z" fill="#97318D"/>
<path d="M70.5353 8.95337H72.3836L69.7727 13.8255V16.7594H68.1416V13.8255L65.4407 8.95337H67.3631L68.9836 12.3533L70.5353 8.95337Z" fill="#97318D"/>
<path d="M74.4542 13.8096H76.4349L75.4604 10.7381L74.4542 13.8096ZM74.5548 8.95337H76.3978L79.1622 16.7594H77.3934L76.8903 15.1548H74.0147L73.4745 16.7594H71.7692L74.5548 8.95337Z" fill="#97318D"/>
<path d="M82.292 13.8096H84.2727L83.2982 10.7381L82.292 13.8096ZM82.3927 8.95337H84.2356L87 16.7594H85.2312L84.7281 15.1548H81.8525L81.3123 16.7594H79.607L82.3927 8.95337Z" fill="#97318D"/>
<path d="M42.1043 4.9548C42.2727 4.9548 42.4037 4.93141 42.4973 4.88462C42.6443 4.81109 42.7179 4.67874 42.7179 4.48757C42.7179 4.29506 42.6397 4.16538 42.4833 4.09854C42.395 4.06111 42.264 4.04239 42.0902 4.04239H41.3783V4.9548H42.1043ZM42.2386 6.31439C42.4833 6.31439 42.6577 6.24354 42.762 6.10183C42.8275 6.01226 42.8602 5.90397 42.8602 5.77697C42.8602 5.56307 42.7647 5.41736 42.5735 5.33982C42.4719 5.29837 42.3375 5.27765 42.1704 5.27765H41.3783V6.31439H42.2386ZM40.9873 3.70951H42.2526C42.5976 3.70951 42.8429 3.81245 42.9886 4.01833C43.0741 4.13998 43.1169 4.28035 43.1169 4.43944C43.1169 4.62526 43.0641 4.77767 42.9585 4.89665C42.9037 4.95948 42.8248 5.01697 42.7219 5.0691C42.8729 5.12659 42.9859 5.19143 43.0608 5.26362C43.1931 5.39196 43.2593 5.56909 43.2593 5.79502C43.2593 5.98485 43.1998 6.15664 43.0808 6.31038C42.903 6.54032 42.6203 6.65529 42.2326 6.65529H40.9873V3.70951Z" fill="#97318D"/>
<path d="M43.8268 3.70951H44.2299V6.65529H43.8268V3.70951Z" fill="#97318D"/>
<path d="M46.2492 5.05908C46.4364 5.05908 46.5841 5.02164 46.6924 4.94678C46.802 4.87192 46.8568 4.73689 46.8568 4.54171C46.8568 4.33182 46.7806 4.18878 46.6282 4.11258C46.5466 4.07247 46.4377 4.05242 46.3013 4.05242H45.3268V5.05908H46.2492ZM44.9277 3.70951H46.2913C46.5159 3.70951 46.7011 3.74227 46.8468 3.80777C47.1235 3.93344 47.2619 4.16538 47.2619 4.50361C47.2619 4.68008 47.2251 4.82446 47.1516 4.93675C47.0794 5.04905 46.9778 5.13929 46.8468 5.20747C46.9617 5.25426 47.048 5.31575 47.1055 5.39196C47.1643 5.46816 47.197 5.59182 47.2037 5.76293L47.2177 6.15798C47.2218 6.27027 47.2311 6.35383 47.2458 6.40864C47.2699 6.50222 47.3127 6.56238 47.3742 6.58911V6.65529H46.8849C46.8715 6.62989 46.8608 6.59714 46.8528 6.55703C46.8448 6.51692 46.8381 6.43939 46.8327 6.32442L46.8087 5.83312C46.7993 5.64061 46.7278 5.5116 46.5941 5.4461C46.5179 5.41 46.3983 5.39196 46.2352 5.39196H45.3268V6.65529H44.9277V3.70951Z" fill="#97318D"/>
<path d="M49.1188 3.6293C49.6388 3.6293 50.0238 3.79641 50.2738 4.13063C50.469 4.39131 50.5666 4.72486 50.5666 5.13127C50.5666 5.57109 50.455 5.93673 50.2317 6.22816C49.9697 6.5704 49.596 6.74152 49.1107 6.74152C48.6575 6.74152 48.3013 6.59179 48.0419 6.29233C47.8106 6.00357 47.695 5.63861 47.695 5.19744C47.695 4.79906 47.7939 4.45816 47.9918 4.17474C48.2458 3.81112 48.6215 3.6293 49.1188 3.6293ZM49.1589 6.38457C49.5105 6.38457 49.7645 6.25891 49.9209 6.00758C50.0786 5.75491 50.1575 5.46481 50.1575 5.13728C50.1575 4.79104 50.0666 4.5123 49.8848 4.30108C49.7043 4.08985 49.457 3.98424 49.1428 3.98424C48.838 3.98424 48.5894 4.08918 48.3969 4.29907C48.2044 4.50762 48.1081 4.81577 48.1081 5.22351C48.1081 5.5497 48.1903 5.8251 48.3547 6.04969C48.5205 6.27295 48.7886 6.38457 49.1589 6.38457Z" fill="#97318D"/>
<path d="M53.6327 5.77697C53.6327 6.02563 53.5959 6.2188 53.5224 6.3565C53.386 6.60783 53.1267 6.7335 52.7443 6.7335C52.5238 6.7335 52.3353 6.67401 52.1788 6.55502C52.0224 6.43471 51.9442 6.22148 51.9442 5.91534V5.70478H52.3192V5.91534C52.3192 6.07576 52.3546 6.19675 52.4255 6.27829C52.4977 6.35851 52.6093 6.39861 52.7604 6.39861C52.9729 6.39861 53.112 6.32575 53.1775 6.18003C53.2176 6.09047 53.2376 5.92135 53.2376 5.6727V3.70951H53.6327V5.77697Z" fill="#97318D"/>
<path d="M55.7523 5.4481L55.3051 4.14667L54.8298 5.4481H55.7523ZM55.0965 3.70951H55.5477L56.6166 6.65529H56.1794L55.8806 5.77296H54.7155L54.3967 6.65529H53.9876L55.0965 3.70951Z" fill="#97318D"/>
<path d="M57.2402 5.70478C57.2496 5.87189 57.289 6.00758 57.3585 6.11186C57.4909 6.30704 57.7241 6.40463 58.0584 6.40463C58.2081 6.40463 58.3444 6.38324 58.4674 6.34046C58.7054 6.25757 58.8244 6.10918 58.8244 5.89528C58.8244 5.73486 58.7742 5.62056 58.674 5.55238C58.5724 5.48554 58.4133 5.42738 58.1967 5.37792L57.7977 5.28768C57.537 5.22886 57.3525 5.16402 57.2442 5.09317C57.0571 4.97018 56.9635 4.78636 56.9635 4.54171C56.9635 4.27701 57.055 4.05977 57.2382 3.88999C57.4213 3.72021 57.6807 3.63532 58.0162 3.63532C58.3251 3.63532 58.5871 3.71018 58.8023 3.85991C59.0189 4.0083 59.1272 4.24626 59.1272 4.5738H58.7522C58.7321 4.41605 58.6894 4.29506 58.6239 4.21084C58.5022 4.0571 58.2957 3.98023 58.0042 3.98023C57.7689 3.98023 57.5998 4.02969 57.4969 4.12862C57.3939 4.22755 57.3425 4.34252 57.3425 4.47353C57.3425 4.61791 57.4026 4.72352 57.5229 4.79037C57.6018 4.83315 57.7803 4.88662 58.0584 4.95079L58.4714 5.04504C58.6706 5.09049 58.8244 5.15266 58.9327 5.23153C59.1198 5.36923 59.2134 5.56909 59.2134 5.83111C59.2134 6.15731 59.0944 6.39059 58.8565 6.53096C58.6198 6.67133 58.3444 6.74152 58.0303 6.74152C57.664 6.74152 57.3772 6.64794 57.17 6.46078C56.9628 6.27495 56.8612 6.02295 56.8652 5.70478H57.2402Z" fill="#97318D"/>
<path d="M61.2307 5.4481L60.7836 4.14667L60.3083 5.4481H61.2307ZM60.575 3.70951H61.0262L62.095 6.65529H61.6579L61.3591 5.77296H60.194L59.8752 6.65529H59.4661L60.575 3.70951Z" fill="#97318D"/>
<path d="M22.4219 6.12793C22.4858 5.79181 22.528 5.45133 22.5429 5.10567C22.7277 0.779503 17.4779 -1.48724 14.1952 1.08431C13.696 1.47539 13.2678 1.95799 12.9467 2.5052C11.5796 4.83545 12.6182 7.03491 13.5953 9.25951C13.9151 9.98739 14.2349 10.7155 14.5546 11.4435L16.6519 16.218C16.8435 16.6541 17.0351 17.0904 17.2267 17.5266C17.2544 17.5895 17.4695 17.945 17.4399 18.012C18.0026 16.7363 18.5652 15.4605 19.1279 14.1849C19.5916 13.1338 20.0636 12.0859 20.5189 11.0311C21.2032 9.44635 22.0953 7.84458 22.4219 6.12793Z" fill="#97318D"/>
</svg>
